<?xml version="1.0" encoding="utf-8"?>
<!-- Generator: Adobe Illustrator 22.1.0, SVG Export Plug-In . SVG Version: 6.00 Build 0)  -->
<svg version="1.1" id="レイヤー_1" xmlns="http://www.w3.org/2000/svg" xmlns:xlink="http://www.w3.org/1999/xlink" x="0px"
	 y="0px" viewBox="0 0 16 16" style="enable-background:new 0 0 16 16;" xml:space="preserve">
<style type="text/css">
	.st0{fill:#FFFFFF;stroke:#666666;stroke-miterlimit:10;}
</style>
<path class="st0" d="M15.4,11v2.9c0,0.5-0.4,0.9-0.9,0.9H1.4c-0.5,0-0.9-0.4-0.9-0.9l0,0V11c0-0.5,0.4-0.9,0.9-0.9h4.2l1.2,1.2
	c0.3,0.3,0.8,0.5,1.2,0.5c0.5,0,0.9-0.2,1.2-0.5l1.2-1.2h4.1C15,10.1,15.4,10.5,15.4,11z M12.5,5.9c0.1,0.2,0,0.5-0.1,0.6l-4,4
	c-0.1,0.1-0.3,0.2-0.4,0.2s-0.3-0.1-0.4-0.2l-4-4C3.4,6.4,3.4,6.1,3.5,5.9C3.6,5.7,3.8,5.6,4,5.6h2.3v-4C6.3,1.3,6.5,1,6.9,1h2.3
	c0.3,0,0.6,0.3,0.6,0.6v4H12C12.2,5.6,12.4,5.7,12.5,5.9z"/>
</svg>
